 <svg
   width="178.19524mm"
   height="178.19566mm"
   viewBox="0 0 178.19524 178.19566"
   version="1.1"
   id="svg5"
   xmlns="http://www.w3.org/2000/svg"
   xmlns:svg="http://www.w3.org/2000/svg">
  <defs
     id="defs2" />
  <g
     id="layer1"
     transform="translate(9.1959883,-35.214221)"
     style="stroke:none">
    <path
       id="path858"
       style="fill:#0e62ac;fill-opacity:1;fill-rule:evenodd;stroke:none;stroke-width:0.985663;stroke-linejoin:round;stroke-miterlimit:4;stroke-dasharray:none;stroke-opacity:1"
       d="m 79.901424,35.707052 a 88.604858,88.604858 0 0 0 -88.6045808,88.604998 88.604858,88.604858 0 0 0 88.6045808,88.605 88.604858,88.604858 0 0 0 88.604996,-88.605 88.604858,88.604858 0 0 0 -88.604996,-88.604998 z m 0,34.238037 A 31.637556,31.637556 0 0 1 111.53896,101.58304 31.637556,31.637556 0 0 1 79.901424,133.22057 31.637556,31.637556 0 0 1 48.263891,101.58304 31.637556,31.637556 0 0 1 79.901424,69.945089 Z m 0.84837,73.143151 c 11.716905,0.19345 23.352696,3.91753 33.004836,10.56278 9.65215,6.64526 17.28339,16.18607 21.64533,27.0625 -14.31643,13.84925 -34.00854,21.99194 -53.925074,22.29795 -21.059466,0.32358 -42.117134,-8.15999 -57.070752,-22.99223 4.576298,-11.0102 12.522282,-20.59339 22.494535,-27.12954 9.972251,-6.53615 21.92937,-9.99828 33.851125,-9.80146 z" />
  </g>
</svg>
