<?xml version="1.0" encoding="UTF-8" standalone="no"?>
<!-- Created with Inkscape (http://www.inkscape.org/) -->

<svg
   width="132.00771mm"
   height="151.27776mm"
   viewBox="0 0 132.00771 151.27775"
   version="1.1"
   id="svg5"
   inkscape:version="1.1.2 (0a00cf5339, 2022-02-04)"
   sodipodi:docname="pineline.svg"
   xmlns:inkscape="http://www.inkscape.org/namespaces/inkscape"
   xmlns:sodipodi="http://sodipodi.sourceforge.net/DTD/sodipodi-0.dtd"
   xmlns="http://www.w3.org/2000/svg"
   xmlns:svg="http://www.w3.org/2000/svg">
  <sodipodi:namedview
     id="namedview7"
     pagecolor="#ffffff"
     bordercolor="#666666"
     borderopacity="1.0"
     inkscape:pageshadow="2"
     inkscape:pageopacity="0.0"
     inkscape:pagecheckerboard="0"
     inkscape:document-units="mm"
     showgrid="false"
     inkscape:snap-global="false"
     inkscape:zoom="0.70929913"
     inkscape:cx="241.78797"
     inkscape:cy="333.42773"
     inkscape:window-width="1366"
     inkscape:window-height="745"
     inkscape:window-x="0"
     inkscape:window-y="-14"
     inkscape:window-maximized="1"
     inkscape:current-layer="layer1" />
  <defs
     id="defs2">
    <inkscape:path-effect
       effect="mirror_symmetry"
       start_point="119.89082,45.784305"
       end_point="119.90107,54.227439"
       center_point="119.89594,50.005872"
       id="path-effect1033"
       is_visible="true"
       lpeversion="1.1"
       mode="free"
       discard_orig_path="false"
       fuse_paths="true"
       oposite_fuse="false"
       split_items="false"
       split_open="false" />
  </defs>
  <g
     inkscape:label="Layer 1"
     inkscape:groupmode="layer"
     id="layer1"
     transform="translate(-37.821165,-29.442069)">
    <path
       style="fill:#4d4d4d;fill-opacity:1;stroke-width:0.3;stroke:#ffffff;stroke-opacity:1;stroke-miterlimit:4;stroke-dasharray:none"
       d="m 135.17176,154.88274 c 0.46808,-2.5753 0.72938,-5.43926 0.82334,-7.6496 0.11518,-3.624 0.50097,-7.22491 0.82217,-10.83347 0.21641,-2.5005 0.61831,-5.01596 0.739,-7.48826 -0.0954,-0.478 0.48952,-2.52969 0.18024,-2.41411 -2.93302,-1.75512 -3.78515,-5.90911 -5.83824,-8.57177 -1.32046,-0.41478 -4.20196,-2.37386 -5.53355,-2.01136 -0.24758,0.15301 -1.88634,0.0737 -2.38361,-0.11536 -1.17419,0.12724 -2.53236,0.27413 -3.23644,-0.47183 -0.63093,-0.63294 -0.31644,-2.55771 -0.0973,-3.19779 0.30493,-0.80794 1.93811,-1.4928 2.17281,-0.91115 0.47488,-1.74931 1.82095,-1.36717 2.44063,-2.21333 0.38538,-0.54122 0.75559,-0.60432 1.08505,-0.18492 0.25346,0.29112 0.50495,-0.38658 0.88417,-0.60716 0.64569,-0.36889 0.91403,-0.42046 2.02571,-0.38924 1.08038,0.0756 2.51092,-0.54945 2.87583,-1.41741 0.49915,-0.7752 1.37325,-0.68197 2.31582,-0.68737 0.88949,-0.14476 1.24053,-0.61904 1.89595,-1.21118 1.16194,0.62629 2.64293,0.2834 3.83869,-0.0986 0.67976,-0.38925 1.33711,0.29476 1.90781,4.7e-4 0.1842,-0.0986 1.12132,-0.17925 2.08246,-0.17925 1.52701,0 1.78928,0.0418 2.07834,0.33079 0.36417,0.36418 1.77703,0.47236 2.08941,0.15998 0.28338,-0.28339 0.6167,-0.0336 1.09816,0.82285 0.55299,0.98378 1.38308,1.55403 2.05186,1.40959 4.27709,-2.34732 4.61246,0.86834 7.06588,0.53193 1.00631,-0.1824 1.42259,-0.0875 1.42259,0.3242 0.11253,0.50918 0.3772,1.52126 0.94026,1.54369 0.75936,0.0663 1.94117,0.78583 1.54871,1.65591 -0.21734,0.42772 0.25194,1.26932 0.76895,1.37904 0.76414,0.16216 1.37352,0.78152 1.55209,1.57748 0.11522,0.97071 -0.0199,1.90769 -0.69618,2.26671 -0.50686,0.2621 -2.71326,0.33082 -2.86261,0.0891 -0.12109,-0.19594 -0.73739,-0.0494 -5.46882,1.30018 -4.61386,1.31608 -6.37315,1.71466 -9.17989,2.07981 -1.7497,0.22763 -2.22386,0.35809 -3.33855,0.91855 -2.65133,1.33305 -3.57888,2.67471 -3.70552,5.35979 -0.25947,5.50174 -0.40553,7.28158 -0.7849,9.5646 -0.60308,9.88543 -0.33004,9.79431 -0.11619,19.62788 -1.29759,-0.67959 -3.45342,0.12262 -3.4641,-0.28944 z m 3.20578,-30.88615 0.3295,-0.80291 c -1.49054,-1.35885 -2.876,-2.88471 -4.52334,-4.05431 l -1.03349,-0.72064 c 1.05853,2.78374 4.0003,7.95711 5.22733,5.57786 z m 1.91879,-4.96314 c -0.75332,-1.77664 -4.16747,-4.1135 -5.14602,-3.71181 -0.62352,0.84901 -0.19331,2.05458 0.19216,3.21521 0.57146,1.20946 2.33781,2.89205 3.63585,3.72142 0.42977,-1.04908 1.24172,-1.99293 1.31801,-3.22482 z m 3.32206,0.37348 c 2.02369,-1.09725 2.29762,-1.3513 2.41703,-2.24167 0.0958,-0.71458 -0.0924,-0.95775 -0.56373,-0.7283 -1.03157,1.31756 -5.56129,4.18981 -3.75001,3.98168 0.0802,-0.0344 0.93378,-0.48961 1.89671,-1.01171 z m -1.71588,-0.42356 c 0.2918,-0.32708 1.42371,-2.50513 0.72453,-2.51397 -0.37087,0 -1.17294,1.51984 -1.17294,2.22261 0,0.43933 0.1066,0.50859 0.44841,0.29136 z m 8.06951,-0.42078 c 1.13493,-0.31312 2.06746,-0.72218 2.06746,-0.90691 -0.75899,-0.86601 -2.49227,-1.21671 -3.45483,-0.46382 -0.95231,0.55684 -1.88131,1.03985 -2.74754,1.78065 1.36928,-0.11938 2.80135,-0.0591 4.13491,-0.40992 z m -15.31177,-0.14978 c -0.15643,-0.76569 -0.0623,-2.80123 -0.81898,-2.90146 -0.22505,-0.0266 -0.54821,0.0533 -0.71812,0.17754 -0.56145,0.91508 -0.11536,2.23383 0.61448,2.66235 0.87257,0.50874 0.9379,0.51311 0.92262,0.0616 z m 6.34774,-0.90969 c 0.21624,-0.50227 0.25754,-1.03631 -0.12288,-1.29054 -0.59274,-0.30819 -0.75146,-0.0118 -1.22528,0.33951 0.27911,0.28087 1.13495,1.30312 1.34816,0.95103 z m -9.15163,-1.09514 c 0.4228,-0.57955 -0.29139,-0.80145 -0.44353,-0.26938 -0.10777,0.41212 -0.35218,0.41212 -1.70188,0 -0.59129,-0.18055 -1.14951,-0.32607 -1.24048,-0.32339 -0.16421,0.005 3.5142,1.59069 3.77478,1.6274 0.005,-0.30169 -0.629,-0.77371 -0.38889,-1.03463 z m 24.65897,-0.54959 c -1.01763,0.17162 -2.07553,0.22751 -3.07274,0.47593 0.28937,0.80581 1.24627,0.8806 1.73683,0.63095 0.56173,-0.32318 0.90837,-0.64865 1.33591,-1.10688 z m -8.39375,1.00068 c 0.98542,-0.31228 1.89209,-1.03549 1.56141,-1.24546 -0.65897,-0.17571 -1.20009,-0.13452 -1.89686,-0.13663 -0.2556,0.49757 -0.67889,1.20501 -0.69036,1.65396 0.0923,0 0.55388,-0.12235 1.02581,-0.2719 z m 9.94524,-0.57066 c -0.49072,-0.51544 -1.91136,0.87507 -1.64434,0.77504 0.5457,-0.24416 1.32215,-0.36349 1.64434,-0.77504 z m -13.65767,-0.39243 c -0.14581,-0.14581 -0.97029,0.56957 -0.97029,0.84189 0.40023,0.0503 0.80207,-0.44453 0.97029,-0.84189 z"
       id="path5707-6-3"
       sodipodi:nodetypes="ccccccccccccccccccccsssscccccsccsssssccccccccccccccssccsccscccccccccccccccccssccccccccccsccccccc" />
    <path
       style="fill:#282828;fill-opacity:1;stroke-width:0.5;stroke:#ffffff;stroke-opacity:1;stroke-miterlimit:4;stroke-dasharray:none"
       d="m 108.02171,165.66522 c 0.71809,-3.95084 1.11896,-8.34451 1.26311,-11.73546 0.1767,-5.55968 0.76855,-11.08394 1.26131,-16.61993 0.332,-3.83608 0.94858,-7.69513 1.13372,-11.48796 -0.14634,-0.73331 0.75099,-3.88086 0.27652,-3.70355 -4.49963,-2.69258 -5.80691,-9.06533 -8.95661,-13.15019 -2.02577,-0.63633 -6.446332,-3.64181 -8.489162,-3.08569 -0.37983,0.23474 -2.89389,0.11308 -3.65677,-0.17697 -1.80135,0.1952 -3.88496,0.42055 -4.965113,-0.72385 -0.967916,-0.97101 -0.485453,-3.92385 -0.149318,-4.90582 0.467811,-1.239493 2.973311,-2.290143 3.333371,-1.397823 0.72854,-2.68367 2.79358,-2.09741 3.74424,-3.39553 0.59123,-0.8303 1.15918,-0.9271 1.6646,-0.28369 0.38885,0.44661 0.77466,-0.59306 1.35644,-0.93147 0.99057,-0.56592 1.40224,-0.64503 3.10768,-0.59714 1.657432,0.11603 3.852082,-0.84292 4.411892,-2.17448 0.76576,-1.18927 2.10675,-1.04623 3.55277,-1.05452 1.36459,-0.22208 1.90313,-0.949677 2.90863,-1.858097 1.78256,0.96081 4.0546,0.43477 5.88905,-0.15129 1.04283,-0.59716 2.05129,0.45221 2.92681,7.2e-4 0.2826,-0.15124 1.72025,-0.27499 3.19476,-0.27499 2.34263,0 2.74499,0.0641 3.18844,0.50748 0.55869,0.5587 2.7262,0.72466 3.20543,0.24542 0.43474,-0.43475 0.94609,-0.0515 1.68471,1.262367 0.84837,1.50924 2.12183,2.38407 3.14783,2.16248 6.5616,-3.601077 7.07609,1.33215 10.83996,0.81605 1.5438,-0.27982 2.18243,-0.13428 2.18243,0.49737 0.17264,0.78114 0.57867,2.3338 1.44248,2.36821 1.16496,0.10179 2.978,1.20557 2.37592,2.54038 -0.33342,0.65618 0.38651,1.947313 1.17967,2.115633 1.17229,0.24877 2.10716,1.19895 2.3811,2.42006 0.17677,1.48919 -0.0305,2.92663 -1.06802,3.47741 -0.77759,0.4021 -4.16249,0.50753 -4.39162,0.13677 -0.18577,-0.30059 -1.13124,-0.0758 -8.38986,1.99465 -7.07826,2.01903 -9.77723,2.63051 -14.08313,3.19069 -2.68426,0.34922 -3.41169,0.54936 -5.12177,1.40917 -4.06748,2.04508 -5.49045,4.10335 -5.68473,8.22261 -0.39806,8.44037 -0.62214,11.17089 -1.20415,14.67333 -0.9252,15.16552 -0.50631,15.02573 -0.17824,30.11168 -1.99067,-1.04258 -5.298,0.18812 -5.31437,-0.44404 z m 4.91808,-47.38331 0.5055,-1.23176 c -2.28669,-2.08465 -4.41216,-4.42552 -6.93939,-6.21983 l -1.5855,-1.10556 c 1.62392,4.27061 6.13697,12.20723 8.01939,8.55715 z m 2.94367,-7.61409 c -1.15569,-2.72559 -6.39343,-6.31064 -7.89465,-5.69439 -0.95657,1.30249 -0.29656,3.15198 0.2948,4.93254 0.87668,1.85547 3.58649,4.43678 5.57785,5.70914 0.65933,-1.60943 1.90496,-3.05742 2.022,-4.94729 z m 5.09647,0.57297 c 3.10459,-1.68333 3.52483,-2.07307 3.70803,-3.43902 0.14704,-1.09625 -0.14171,-1.4693 -0.86483,-1.1173 -1.58256,2.02131 -8.53173,6.4277 -5.753,6.1084 0.12312,-0.0527 1.43253,-0.75111 2.9098,-1.55208 z m -2.63239,-0.6498 c 0.44767,-0.50178 2.18416,-3.84319 1.11153,-3.85676 -0.56897,0 -1.79944,2.33164 -1.79944,3.40977 0,0.67399 0.16353,0.78024 0.68791,0.44699 z m 12.37967,-0.64553 c 1.74113,-0.48037 3.17174,-1.10792 3.17174,-1.39132 -1.16439,-1.32857 -3.82345,-1.86659 -5.30014,-0.71156 -1.46098,0.85426 -2.88618,1.59526 -4.21508,2.73175 2.10065,-0.18314 4.29763,-0.0906 6.34348,-0.62887 z m -23.49022,-0.22979 c -0.23998,-1.17466 -0.0956,-4.29744 -1.25642,-4.4512 -0.34526,-0.0408 -0.84102,0.0818 -1.10169,0.27236 -0.86133,1.40385 -0.17698,3.42699 0.94269,4.08439 1.33864,0.78047 1.43886,0.78717 1.41542,0.0945 z m 9.73824,-1.39557 c 0.33174,-0.77055 0.39511,-1.58984 -0.1885,-1.97986 -0.90935,-0.4728 -1.15284,-0.0181 -1.87974,0.52086 0.42818,0.43089 1.74116,1.99915 2.06824,1.459 z m -14.03977,-1.68009 c 0.64863,-0.8891 -0.44702,-1.22952 -0.68042,-0.41326 -0.16534,0.63225 -0.54029,0.63225 -2.610912,0 -0.90711,-0.27699 -1.76349,-0.50023 -1.90304,-0.49612 -0.25192,0.007 5.391222,2.44032 5.790982,2.49664 0.008,-0.46283 -0.96496,-1.18697 -0.59661,-1.58726 z m 37.83002,-0.84314 c -1.56117,0.26328 -3.18413,0.34903 -4.71397,0.73013 0.44392,1.23622 1.91194,1.35096 2.66452,0.96796 0.86176,-0.4958 1.39355,-0.9951 2.04945,-1.69809 z m -12.87708,1.53517 c 1.51176,-0.47907 2.90271,-1.58858 2.39539,-1.9107 -1.01093,-0.26956 -1.84108,-0.20636 -2.91002,-0.2096 -0.39212,0.76333 -1.04151,1.84864 -1.0591,2.53739 0.14155,0 0.84972,-0.18771 1.57373,-0.41714 z m 15.25726,-0.87547 c -0.75282,-0.79074 -2.93227,1.34248 -2.52262,1.18901 0.83717,-0.37457 2.02835,-0.55763 2.52262,-1.18901 z m -20.95261,-0.60203 c -0.22369,-0.22369 -1.48855,0.87379 -1.48855,1.29157 0.61401,0.0772 1.23048,-0.68197 1.48855,-1.29157 z"
       id="path5707-6"
       sodipodi:nodetypes="ccccccccccccccccccccsssscccccsccsssssccccccccccccccssccsccscccccccccccccccccssccccccccccsccccccc" />
    <path
       style="fill:#000000;stroke-width:1;stroke:#ffffff;stroke-opacity:1;stroke-miterlimit:4;stroke-dasharray:none"
       d="m 81.769664,179.86031 c 1.39,-7.64761 2.16598,-16.1524 2.44499,-22.71623 0.34204,-10.76184 1.48767,-21.45511 2.44152,-32.17108 0.64265,-7.42548 1.83616,-14.8954 2.19452,-22.23715 -0.28327,-1.41947 1.45369,-7.512168 0.53526,-7.168942 C 80.676062,90.354909 78.145562,78.01923 72.048746,70.112189 68.127459,68.880439 59.570596,63.062747 55.61631,64.139238 c -0.735225,0.454392 -5.601681,0.218875 -7.078379,-0.342566 -3.486868,0.377847 -7.520087,0.814059 -9.610937,-1.401144 -1.873588,-1.879586 -0.939687,-7.595367 -0.289035,-9.496154 0.905538,-2.399242 5.755422,-4.432987 6.452385,-2.705732 1.410231,-5.194772 5.407495,-4.059952 7.247694,-6.572698 1.144438,-1.607215 2.243804,-1.794577 3.222163,-0.549146 0.752688,0.8645 1.499488,-1.147987 2.625631,-1.803046 1.917434,-1.095449 2.714319,-1.248571 6.015533,-1.155881 3.208281,0.224612 7.456463,-1.631629 8.540066,-4.20913 1.482281,-2.302054 4.07801,-2.025155 6.877064,-2.041215 2.641434,-0.429875 3.683869,-1.838297 5.630209,-3.596703 3.45049,1.859831 7.84846,0.841569 11.3994,-0.292863 2.01859,-1.15591 3.970656,0.87534 5.665406,0.0014 0.54702,-0.292761 3.32987,-0.532291 6.18407,-0.532291 4.53461,0 5.31346,0.123959 6.17182,0.982321 1.08147,1.081483 5.2771,1.402713 6.20474,0.475063 0.84154,-0.841534 1.83134,-0.09985 3.26107,2.44357 1.6422,2.921417 4.10723,4.614824 6.09324,4.185887 12.70125,-6.970589 13.69714,2.578634 20.98283,1.579619 2.98831,-0.541649 4.22452,-0.259918 4.22452,0.962768 0.33417,1.512037 1.12011,4.517513 2.79219,4.58411 2.255,0.197035 5.76449,2.333621 4.59904,4.917393 -0.6454,1.270161 0.74816,3.769383 2.28347,4.095203 2.26922,0.481568 4.07883,2.320792 4.6091,4.684488 0.34217,2.882602 -0.059,5.665044 -2.06737,6.731177 -1.50516,0.778353 -8.05729,0.982418 -8.50082,0.264757 -0.35961,-0.581861 -2.18974,-0.146764 -16.2402,3.861039 -13.70133,3.908204 -18.9257,5.091838 -27.2606,6.176182 -5.19589,0.675966 -6.60399,1.063385 -9.91418,2.727726 -7.873366,3.958643 -10.627816,7.942814 -11.003886,15.916443 -0.77052,16.337945 -1.20426,21.623395 -2.33085,28.403065 -1.7909,29.35578 -0.98008,29.08519 -0.34502,58.28694 -3.85333,-2.01812 -10.255295,0.36414 -10.286986,-0.85953 z m 9.51989,-91.719509 0.9785,-2.384314 c -4.42633,-4.035249 -8.5406,-8.566441 -13.432526,-12.039671 l -3.06904,-2.140028 c 3.143394,8.266576 11.879296,23.62945 15.523066,16.564013 z m 5.69804,-14.738558 c -2.23706,-5.275889 -12.3757,-12.21544 -15.281609,-11.022588 -1.851633,2.521245 -0.574059,6.101282 0.570651,9.547897 1.696968,3.591606 6.942318,8.588246 10.796988,11.051135 1.27627,-3.115369 3.68742,-5.918215 3.91397,-9.576444 z m 9.865206,1.109089 c 6.00954,-3.258386 6.82297,-4.012796 7.1776,-6.656854 0.28462,-2.122005 -0.2743,-2.84412 -1.67405,-2.162748 -3.06335,3.912619 -16.514796,12.442025 -11.13604,11.823963 0.23832,-0.101943 2.77294,-1.453912 5.63249,-3.004361 z m -5.09549,-1.257791 c 0.86653,-0.971289 4.22785,-7.439229 2.15156,-7.465508 -1.10134,0 -3.48316,4.513334 -3.48316,6.600265 0,1.304638 0.31655,1.510318 1.3316,0.865243 z m 23.96322,-1.249556 c 3.3703,-0.929849 6.13951,-2.1446 6.13951,-2.693172 -2.25389,-2.571699 -7.40101,-3.613133 -10.25945,-1.377356 -2.828,1.653583 -5.58676,3.087945 -8.1591,5.287826 4.06622,-0.354482 8.3189,-0.175259 12.27904,-1.217298 z M 80.250699,71.559182 c -0.464529,-2.273775 -0.18506,-8.318521 -2.432042,-8.616147 -0.668339,-0.07899 -1.627983,0.158254 -2.132545,0.527199 -1.667245,2.717428 -0.342585,6.633617 1.824764,7.906134 2.591193,1.510754 2.785196,1.523698 2.739823,0.182814 z m 18.850235,-2.70139 c 0.64214,-1.491547 0.7648,-3.077441 -0.36488,-3.832401 -1.76023,-0.915191 -2.23155,-0.03497 -3.63861,1.008221 0.82883,0.834077 3.37036,3.869744 4.00349,2.82418 z m -27.176672,-3.25214 c 1.255548,-1.721028 -0.865302,-2.379971 -1.317085,-0.799942 -0.32004,1.223835 -1.045839,1.223835 -5.053929,0 -1.755901,-0.536152 -3.413571,-0.968299 -3.68371,-0.960331 -0.487626,0.01448 10.435768,4.72372 11.209574,4.832716 0.01578,-0.895884 -1.867848,-2.297608 -1.15485,-3.072443 z m 73.227268,-1.632054 c -3.02192,0.50963 -6.16348,0.675626 -9.12479,1.413299 0.8593,2.392952 3.70092,2.615055 5.15769,1.873678 1.6681,-0.959706 2.69748,-1.926212 3.9671,-3.286977 z m -24.92606,2.971607 c 2.9263,-0.92733 5.61877,-3.074988 4.63675,-3.698514 -1.95685,-0.521795 -3.56377,-0.399442 -5.63291,-0.405719 -0.75903,1.477578 -2.01604,3.578398 -2.05009,4.911618 0.27399,0 1.64478,-0.363365 3.04625,-0.807475 z m 29.53336,-1.694632 c -1.45722,-1.530628 -5.67596,2.598623 -4.88301,2.301544 1.6205,-0.725027 3.92626,-1.079387 4.88301,-2.301544 z m -40.5578,-1.165335 c -0.433,-0.432999 -2.88138,1.69138 -2.88138,2.500081 1.18855,0.149512 2.38182,-1.320081 2.88138,-2.500081 z"
       id="path5707"
       sodipodi:nodetypes="ccccccccccccccccccccsssscccccsccsssssccccccccccccccssccsccscccccccccccccccccssccccccccccsccccccc" />
  </g>
</svg>
