<?xml version="1.0" standalone="no"?>
<!DOCTYPE svg PUBLIC "-//W3C//DTD SVG 20010904//EN"
 "http://www.w3.org/TR/2001/REC-SVG-20010904/DTD/svg10.dtd">
<svg version="1.0" xmlns="http://www.w3.org/2000/svg"
 width="700.000000pt" height="700.000000pt" viewBox="0 0 700.000000 700.000000"
 preserveAspectRatio="xMidYMid meet">
<metadata>
Created by potrace 1.14, written by Peter Selinger 2001-2017
</metadata>
<g transform="translate(0.000000,700.000000) scale(0.100000,-0.100000)"
fill="#000000" stroke="none">
<path d="M2995 6990 c-22 -4 -62 -11 -90 -14 -101 -14 -328 -58 -515 -101
-127 -29 -351 -97 -435 -132 -95 -40 -104 -45 -110 -63 -10 -31 -109 -120
-169 -151 -122 -65 -241 -96 -593 -154 -333 -56 -516 -96 -608 -134 -144 -59
-245 -119 -302 -179 -76 -80 -114 -157 -152 -305 -56 -217 24 -454 248 -732
73 -90 216 -231 311 -307 41 -33 82 -65 91 -73 55 -44 189 -127 284 -175 156
-80 234 -102 395 -115 36 -3 92 -7 125 -10 69 -5 191 -12 385 -20 74 -3 147
-8 163 -11 78 -12 95 -17 132 -34 72 -34 126 -96 222 -255 55 -91 182 -310
230 -395 11 -19 42 -70 68 -113 l48 -79 -62 -186 c-59 -182 -61 -191 -66 -317
-3 -71 -7 -139 -9 -150 -2 -11 -7 -56 -11 -100 -3 -44 -8 -98 -10 -120 -2 -22
-6 -71 -9 -110 -4 -38 -8 -88 -11 -110 -4 -37 -7 -77 -20 -230 -3 -33 -8 -87
-11 -120 -2 -33 -7 -91 -9 -130 -2 -38 -7 -108 -10 -155 -9 -146 -14 -240 -20
-395 -3 -82 -8 -170 -10 -195 -2 -25 -7 -88 -10 -140 -6 -97 -11 -160 -20
-240 -3 -25 -7 -72 -10 -105 -3 -33 -8 -71 -10 -85 -2 -14 -7 -50 -10 -80 -8
-68 -41 -299 -53 -360 -4 -25 -8 -52 -7 -60 0 -21 51 -27 259 -29 207 -3 328
-6 542 -17 l151 -7 -3 69 c-1 38 -5 179 -8 314 -4 135 -8 310 -11 390 -25 850
-20 1385 20 1940 2 30 7 114 10 185 9 168 12 212 19 223 3 5 8 24 11 43 20
111 99 288 187 418 48 70 222 250 538 558 102 99 106 102 160 108 30 3 66 8
80 10 14 2 43 7 65 9 50 7 251 35 285 41 14 2 45 6 70 9 40 4 362 50 431 62
15 2 47 6 70 9 43 5 107 14 140 20 9 2 40 6 70 10 30 3 61 8 69 10 8 2 35 7
60 10 25 3 56 8 70 10 14 2 61 9 105 15 44 7 89 14 99 16 11 2 42 6 70 9 28 3
58 8 66 10 16 4 28 6 199 30 62 8 123 17 135 20 11 2 44 7 71 10 45 5 71 9
130 20 11 2 23 4 28 4 7 1 84 117 250 376 44 67 99 138 144 181 l73 72 0 198
0 199 -31 55 c-42 73 -177 205 -321 312 -230 173 -311 274 -367 465 -27 89
-70 148 -140 190 -74 44 -144 58 -296 58 -133 -1 -160 -3 -397 -35 -235 -33
-259 -35 -403 -34 -230 1 -333 45 -421 181 -19 29 -43 61 -55 71 -27 26 -104
67 -186 100 l-68 27 -640 1 c-352 1 -658 -2 -680 -6z m2170 -1494 c44 -15 102
-40 128 -56 27 -17 51 -30 53 -30 9 0 115 -84 168 -133 36 -33 47 -49 42 -63
-7 -22 -112 -73 -246 -119 -52 -18 -138 -55 -190 -82 -147 -76 -342 -147 -460
-167 -19 -3 -46 -8 -60 -10 -150 -27 -317 -24 -534 8 -47 6 -105 12 -130 11
-25 0 -46 3 -46 6 0 9 299 293 385 365 183 153 389 262 545 289 19 3 36 8 38
10 3 2 55 3 116 1 86 -3 129 -10 191 -30z m-2605 -62 c116 -39 258 -146 325
-246 17 -23 33 -45 37 -48 15 -12 69 -143 83 -203 39 -164 -2 -336 -108 -452
l-42 -47 -35 20 c-19 11 -84 41 -145 67 -60 26 -123 53 -140 60 -16 7 -111 46
-210 85 -466 187 -746 314 -876 395 -67 43 -119 95 -119 120 0 38 74 81 171
100 69 14 140 25 189 30 30 3 64 8 75 10 11 2 52 7 90 10 39 3 79 8 90 10 11
2 42 7 69 10 109 13 214 38 261 62 28 14 66 29 85 33 48 10 146 2 200 -16z"/>
</g>
</svg>
